<svg width="132" height="132" viewBox="0 0 132 132" fill="none" xmlns="http://www.w3.org/2000/svg">
<path d="M67.4945 14.7701L76.7705 43.3186C77.8223 46.5559 80.8391 48.7477 84.2431 48.7477H114.261C115.783 48.7477 116.416 50.6957 115.184 51.5905L90.8996 69.2344C88.1457 71.2352 86.9934 74.7816 88.0453 78.0189L97.3212 106.567C97.7916 108.015 96.1346 109.219 94.9031 108.324L70.6183 90.6804C67.8645 88.6796 64.1355 88.6796 61.3817 90.6804L37.0969 108.324C35.8654 109.219 34.2084 108.015 34.6788 106.567L43.9547 78.0189C45.0066 74.7816 43.8543 71.2352 41.1004 69.2344L16.8157 51.5905C15.5841 50.6957 16.2171 48.7477 17.7393 48.7477H47.7569C51.1609 48.7477 54.1777 46.5559 55.2295 43.3186L64.5055 14.7702C64.9759 13.3224 67.0241 13.3224 67.4945 14.7701Z" stroke="#66FCF1" stroke-width="6.28571"/>
<rect x="62.8571" y="15.7143" width="6.28571" height="51.8571" fill="#66FCF1"/>
<rect x="67.3228" y="70.4247" width="6.28571" height="52.7075" transform="rotate(-110.533 67.3228 70.4247)" fill="#66FCF1"/>
<circle cx="66" cy="67.5714" r="3.14286" fill="#66FCF1"/>
</svg>
