<svg width="30" height="30" viewBox="0 0 30 30" fill="none" xmlns="http://www.w3.org/2000/svg">
<g clip-path="url(#clip0_26_159)">
<path d="M15 0C6.71571 0 0 6.71571 0 15C0 23.2843 6.71571 30 15 30C23.2843 30 30 23.2843 30 15C30 6.71571 23.2843 0 15 0ZM1.92251 15.9375H5.13937C5.21094 17.494 5.44616 18.9181 5.81149 20.197H2.95298C2.38059 18.8754 2.02947 17.4403 1.92251 15.9375ZM19.6273 14.0625C19.5568 12.5556 19.3782 11.1282 19.1363 9.80302H22.2093C22.6183 11.0608 22.8991 12.4791 22.9838 14.0625H19.6273ZM12.6355 20.197C12.3709 18.736 12.241 17.3099 12.217 15.9375H17.7831C17.7591 17.3099 17.6292 18.736 17.3645 20.197H12.6355ZM16.956 22.072C16.5164 23.7596 15.8801 25.4798 14.9998 27.2038C14.1197 25.4798 13.4835 23.7596 13.0439 22.072H16.956ZM12.2425 14.0625C12.3168 12.547 12.5084 11.1189 12.7629 9.80302H17.2371C17.4917 11.1189 17.6832 12.547 17.7576 14.0625H12.2425ZM13.1842 7.92808C13.7701 5.6408 14.494 3.83614 14.9999 2.72504C15.5058 3.83614 16.2298 5.6408 16.8158 7.92808H13.1842ZM18.739 7.92808C18.1408 5.44929 17.3728 3.45808 16.8026 2.17114C17.5112 2.67533 19.8652 4.53888 21.471 7.92808H18.739ZM13.1971 2.17102C12.627 3.45796 11.8591 5.44922 11.261 7.92808H8.52863C10.1346 4.53857 12.4888 2.67502 13.1971 2.17102ZM10.8637 9.80308C10.6218 11.1283 10.4432 12.5557 10.3727 14.0626H7.0159C7.10057 12.4793 7.38129 11.0609 7.79039 9.80308H10.8637ZM5.14139 14.0625H1.92251C2.02947 12.5598 2.38053 11.1247 2.95292 9.80302H5.82447C5.45645 11.0818 5.21657 12.5049 5.14139 14.0625ZM7.01492 15.9375H10.347C10.3683 17.3123 10.484 18.7365 10.7291 20.197H7.79137C7.37884 18.936 7.09714 17.5172 7.01492 15.9375ZM11.1174 22.072C11.5773 23.9812 12.2604 25.9325 13.2446 27.8916C12.5805 27.4161 10.1663 25.5172 8.52949 22.072H11.1174ZM16.7532 27.8958C17.7385 25.9353 18.4223 23.9826 18.8826 22.072H21.4892C19.8573 25.5348 17.4328 27.418 16.7532 27.8958ZM19.271 20.197C19.5162 18.7365 19.6318 17.3123 19.6531 15.9375H22.9858C22.9051 17.5201 22.628 18.9385 22.2215 20.197H19.271ZM24.8603 15.9375H28.0775C27.9705 17.4403 27.6194 18.8754 27.047 20.197H24.1882C24.5535 18.9181 24.7887 17.494 24.8603 15.9375ZM24.8583 14.0625C24.7831 12.5048 24.5432 11.0818 24.1752 9.80302H27.0471C27.6196 11.1247 27.9706 12.5597 28.0776 14.0625H24.8583ZM26.0393 7.92808H23.5143C22.6762 5.90927 21.5836 4.31229 20.5554 3.12588C22.8046 4.18261 24.7052 5.85282 26.0393 7.92808ZM9.444 3.12612C8.41592 4.31253 7.32343 5.90945 6.48539 7.92808H3.96067C5.29469 5.85294 7.1951 4.18292 9.444 3.12612ZM3.96073 22.072H6.47014C7.29557 24.0702 8.37276 25.6619 9.39373 26.8496C7.16688 25.7916 5.28478 24.1315 3.96073 22.072ZM20.6067 26.8494C21.6274 25.6618 22.7044 24.0701 23.5297 22.072H26.0393C24.7153 24.1314 22.8334 25.7913 20.6067 26.8494Z" fill="#66FCF1"/>
</g>
<defs>
<clipPath id="clip0_26_159">
<rect width="30" height="30" fill="white"/>
</clipPath>
</defs>
</svg>
